<svg width="190" height="16" viewBox="0 0 190 16" fill="none" xmlns="http://www.w3.org/2000/svg">
<path d="M4.788 15V3.072H0.084V0.299999H12.894V3.072H8.19V15H4.788ZM17.8534 6.222H24.9304V8.868H17.8534V6.222ZM18.1054 12.27H26.1064V15H14.7244V0.299999H25.8334V3.03H18.1054V12.27ZM26.9898 15L33.3108 6.285V8.763L27.2628 0.299999H31.1268L35.3058 6.201L33.6888 6.222L37.8048 0.299999H41.5008L35.4948 8.616V6.18L41.8578 15H37.9308L33.6048 8.763H35.1588L30.8958 15H26.9898ZM46.0702 15V3.072H41.3662V0.299999H54.1762V3.072H49.4722V15H46.0702ZM62.2916 15.252C60.2056 15.252 58.5746 14.671 57.3986 13.509C56.2226 12.347 55.6346 10.688 55.6346 8.532V0.299999H59.0366V8.406C59.0366 9.806 59.3236 10.814 59.8976 11.43C60.4716 12.046 61.2766 12.354 62.3126 12.354C63.3486 12.354 64.1536 12.046 64.7276 11.43C65.3016 10.814 65.5886 9.806 65.5886 8.406V0.299999H68.9486V8.532C68.9486 10.688 68.3606 12.347 67.1846 13.509C66.0086 14.671 64.3776 15.252 62.2916 15.252ZM72.3104 15V0.299999H78.6734C79.9894 0.299999 81.1234 0.516999 82.0754 0.950999C83.0274 1.371 83.7624 1.98 84.2804 2.778C84.7984 3.576 85.0574 4.528 85.0574 5.634C85.0574 6.726 84.7984 7.671 84.2804 8.469C83.7624 9.253 83.0274 9.855 82.0754 10.275C81.1234 10.695 79.9894 10.905 78.6734 10.905H74.2004L75.7124 9.414V15H72.3104ZM81.6554 15L77.9804 9.666H81.6134L85.3304 15H81.6554ZM75.7124 9.792L74.2004 8.196H78.4844C79.5344 8.196 80.3184 7.972 80.8364 7.524C81.3544 7.062 81.6134 6.432 81.6134 5.634C81.6134 4.822 81.3544 4.192 80.8364 3.744C80.3184 3.296 79.5344 3.072 78.4844 3.072H74.2004L75.7124 1.455V9.792ZM90.8818 6.222H97.9588V8.868H90.8818V6.222ZM91.1338 12.27H99.1348V15H87.7528V0.299999H98.8618V3.03H91.1338V12.27Z" fill="#FFD723"/>
<path d="M112.619 15.252C111.443 15.252 110.316 15.098 109.238 14.79C108.16 14.468 107.292 14.055 106.634 13.551L107.789 10.989C108.419 11.437 109.161 11.808 110.015 12.102C110.883 12.382 111.758 12.522 112.64 12.522C113.312 12.522 113.851 12.459 114.257 12.333C114.677 12.193 114.985 12.004 115.181 11.766C115.377 11.528 115.475 11.255 115.475 10.947C115.475 10.555 115.321 10.247 115.013 10.023C114.705 9.785 114.299 9.596 113.795 9.456C113.291 9.302 112.731 9.162 112.115 9.036C111.513 8.896 110.904 8.728 110.288 8.532C109.686 8.336 109.133 8.084 108.629 7.776C108.125 7.468 107.712 7.062 107.39 6.558C107.082 6.054 106.928 5.41 106.928 4.626C106.928 3.786 107.152 3.023 107.6 2.337C108.062 1.637 108.748 1.084 109.658 0.677999C110.582 0.258 111.737 0.0479997 113.123 0.0479997C114.047 0.0479997 114.957 0.16 115.853 0.383999C116.749 0.593999 117.54 0.915999 118.226 1.35L117.176 3.933C116.49 3.541 115.804 3.254 115.118 3.072C114.432 2.876 113.76 2.778 113.102 2.778C112.444 2.778 111.905 2.855 111.485 3.009C111.065 3.163 110.764 3.366 110.582 3.618C110.4 3.856 110.309 4.136 110.309 4.458C110.309 4.836 110.463 5.144 110.771 5.382C111.079 5.606 111.485 5.788 111.989 5.928C112.493 6.068 113.046 6.208 113.648 6.348C114.264 6.488 114.873 6.649 115.475 6.831C116.091 7.013 116.651 7.258 117.155 7.566C117.659 7.874 118.065 8.28 118.373 8.784C118.695 9.288 118.856 9.925 118.856 10.695C118.856 11.521 118.625 12.277 118.163 12.963C117.701 13.649 117.008 14.202 116.084 14.622C115.174 15.042 114.019 15.252 112.619 15.252ZM124.02 15V3.072H119.316V0.299999H132.126V3.072H127.422V15H124.02ZM140.242 15.252C138.156 15.252 136.525 14.671 135.349 13.509C134.173 12.347 133.585 10.688 133.585 8.532V0.299999H136.987V8.406C136.987 9.806 137.274 10.814 137.848 11.43C138.422 12.046 139.227 12.354 140.263 12.354C141.299 12.354 142.104 12.046 142.678 11.43C143.252 10.814 143.539 9.806 143.539 8.406V0.299999H146.899V8.532C146.899 10.688 146.311 12.347 145.135 13.509C143.959 14.671 142.328 15.252 140.242 15.252ZM150.261 15V0.299999H156.939C158.535 0.299999 159.942 0.607999 161.16 1.224C162.378 1.826 163.33 2.673 164.016 3.765C164.702 4.857 165.045 6.152 165.045 7.65C165.045 9.134 164.702 10.429 164.016 11.535C163.33 12.627 162.378 13.481 161.16 14.097C159.942 14.699 158.535 15 156.939 15H150.261ZM153.663 12.207H156.771C157.751 12.207 158.598 12.025 159.312 11.661C160.04 11.283 160.6 10.751 160.992 10.065C161.398 9.379 161.601 8.574 161.601 7.65C161.601 6.712 161.398 5.907 160.992 5.235C160.6 4.549 160.04 4.024 159.312 3.66C158.598 3.282 157.751 3.093 156.771 3.093H153.663V12.207ZM167.61 15V0.299999H171.012V15H167.61ZM181.641 15.252C180.479 15.252 179.401 15.063 178.407 14.685C177.427 14.307 176.573 13.775 175.845 13.089C175.131 12.403 174.571 11.598 174.165 10.674C173.773 9.75 173.577 8.742 173.577 7.65C173.577 6.558 173.773 5.55 174.165 4.626C174.571 3.702 175.138 2.897 175.866 2.211C176.594 1.525 177.448 0.992999 178.428 0.614999C179.408 0.236999 180.472 0.0479997 181.62 0.0479997C182.782 0.0479997 183.846 0.236999 184.812 0.614999C185.792 0.992999 186.639 1.525 187.353 2.211C188.081 2.897 188.648 3.702 189.054 4.626C189.46 5.536 189.663 6.544 189.663 7.65C189.663 8.742 189.46 9.757 189.054 10.695C188.648 11.619 188.081 12.424 187.353 13.11C186.639 13.782 185.792 14.307 184.812 14.685C183.846 15.063 182.789 15.252 181.641 15.252ZM181.62 12.354C182.278 12.354 182.88 12.242 183.426 12.018C183.986 11.794 184.476 11.472 184.896 11.052C185.316 10.632 185.638 10.135 185.862 9.561C186.1 8.987 186.219 8.35 186.219 7.65C186.219 6.95 186.1 6.313 185.862 5.739C185.638 5.165 185.316 4.668 184.896 4.248C184.49 3.828 184.007 3.506 183.447 3.282C182.887 3.058 182.278 2.946 181.62 2.946C180.962 2.946 180.353 3.058 179.793 3.282C179.247 3.506 178.764 3.828 178.344 4.248C177.924 4.668 177.595 5.165 177.357 5.739C177.133 6.313 177.021 6.95 177.021 7.65C177.021 8.336 177.133 8.973 177.357 9.561C177.595 10.135 177.917 10.632 178.323 11.052C178.743 11.472 179.233 11.794 179.793 12.018C180.353 12.242 180.962 12.354 181.62 12.354Z" fill="#F5F5F5"/>
</svg>
