<svg width="217" height="19" viewBox="0 0 217 19" fill="none" xmlns="http://www.w3.org/2000/svg">
<path d="M5.472 18V4.368H0.096V1.2H14.736V4.368H9.36V18H5.472ZM20.4039 7.968H28.4919V10.992H20.4039V7.968ZM20.6919 14.88H29.8359V18H16.8279V1.2H29.5239V4.32H20.6919V14.88ZM30.8454 18L38.0694 8.04V10.872L31.1574 1.2H35.5734L40.3494 7.944L38.5014 7.968L43.2054 1.2H47.4294L40.5654 10.704V7.92L47.8374 18H43.3494L38.4054 10.872H40.1814L35.3094 18H30.8454ZM52.6517 18V4.368H47.2757V1.2H61.9157V4.368H56.5397V18H52.6517ZM71.1904 18.288C68.8064 18.288 66.9424 17.624 65.5984 16.296C64.2544 14.968 63.5824 13.072 63.5824 10.608V1.2H67.4704V10.464C67.4704 12.064 67.7984 13.216 68.4544 13.92C69.1104 14.624 70.0304 14.976 71.2144 14.976C72.3984 14.976 73.3184 14.624 73.9744 13.92C74.6304 13.216 74.9584 12.064 74.9584 10.464V1.2H78.7984V10.608C78.7984 13.072 78.1264 14.968 76.7824 16.296C75.4384 17.624 73.5744 18.288 71.1904 18.288ZM82.6404 18V1.2H89.9124C91.4164 1.2 92.7124 1.448 93.8004 1.944C94.8884 2.424 95.7284 3.12 96.3204 4.032C96.9124 4.944 97.2084 6.032 97.2084 7.296C97.2084 8.544 96.9124 9.624 96.3204 10.536C95.7284 11.432 94.8884 12.12 93.8004 12.6C92.7124 13.08 91.4164 13.32 89.9124 13.32H84.8004L86.5284 11.616V18H82.6404ZM93.3204 18L89.1204 11.904H93.2724L97.5204 18H93.3204ZM86.5284 12.048L84.8004 10.224H89.6964C90.8964 10.224 91.7924 9.968 92.3844 9.456C92.9764 8.928 93.2724 8.208 93.2724 7.296C93.2724 6.368 92.9764 5.648 92.3844 5.136C91.7924 4.624 90.8964 4.368 89.6964 4.368H84.8004L86.5284 2.52V12.048ZM103.865 7.968H111.953V10.992H103.865V7.968ZM104.153 14.88H113.297V18H100.289V1.2H112.985V4.32H104.153V14.88Z" fill="#FFD723"/>
<path d="M128.707 18.288C127.363 18.288 126.075 18.112 124.843 17.76C123.611 17.392 122.619 16.92 121.867 16.344L123.187 13.416C123.907 13.928 124.755 14.352 125.731 14.688C126.723 15.008 127.723 15.168 128.731 15.168C129.499 15.168 130.115 15.096 130.579 14.952C131.059 14.792 131.411 14.576 131.635 14.304C131.859 14.032 131.971 13.72 131.971 13.368C131.971 12.92 131.795 12.568 131.443 12.312C131.091 12.04 130.627 11.824 130.051 11.664C129.475 11.488 128.835 11.328 128.131 11.184C127.443 11.024 126.747 10.832 126.043 10.608C125.355 10.384 124.723 10.096 124.147 9.744C123.571 9.392 123.099 8.928 122.731 8.352C122.379 7.776 122.203 7.04 122.203 6.144C122.203 5.184 122.459 4.312 122.971 3.528C123.499 2.728 124.283 2.096 125.323 1.632C126.379 1.152 127.699 0.912 129.283 0.912C130.339 0.912 131.379 1.04 132.403 1.296C133.427 1.536 134.331 1.904 135.115 2.4L133.915 5.352C133.131 4.904 132.347 4.576 131.563 4.368C130.779 4.144 130.011 4.032 129.259 4.032C128.507 4.032 127.891 4.12 127.411 4.296C126.931 4.472 126.587 4.704 126.379 4.992C126.171 5.264 126.067 5.584 126.067 5.952C126.067 6.384 126.243 6.736 126.595 7.008C126.947 7.264 127.411 7.472 127.987 7.632C128.563 7.792 129.195 7.952 129.883 8.112C130.587 8.272 131.283 8.456 131.971 8.664C132.675 8.872 133.315 9.152 133.891 9.504C134.467 9.856 134.931 10.32 135.283 10.896C135.651 11.472 135.835 12.2 135.835 13.08C135.835 14.024 135.571 14.888 135.043 15.672C134.515 16.456 133.723 17.088 132.667 17.568C131.627 18.048 130.307 18.288 128.707 18.288ZM141.738 18V4.368H136.362V1.2H151.002V4.368H145.626V18H141.738ZM160.276 18.288C157.892 18.288 156.028 17.624 154.684 16.296C153.34 14.968 152.668 13.072 152.668 10.608V1.2H156.556V10.464C156.556 12.064 156.884 13.216 157.54 13.92C158.196 14.624 159.116 14.976 160.3 14.976C161.484 14.976 162.404 14.624 163.06 13.92C163.716 13.216 164.044 12.064 164.044 10.464V1.2H167.884V10.608C167.884 13.072 167.212 14.968 165.868 16.296C164.524 17.624 162.66 18.288 160.276 18.288ZM171.726 18V1.2H179.358C181.182 1.2 182.79 1.552 184.182 2.256C185.574 2.944 186.662 3.912 187.446 5.16C188.23 6.408 188.622 7.888 188.622 9.6C188.622 11.296 188.23 12.776 187.446 14.04C186.662 15.288 185.574 16.264 184.182 16.968C182.79 17.656 181.182 18 179.358 18H171.726ZM175.614 14.808H179.166C180.286 14.808 181.254 14.6 182.07 14.184C182.902 13.752 183.542 13.144 183.99 12.36C184.454 11.576 184.686 10.656 184.686 9.6C184.686 8.528 184.454 7.608 183.99 6.84C183.542 6.056 182.902 5.456 182.07 5.04C181.254 4.608 180.286 4.392 179.166 4.392H175.614V14.808ZM191.555 18V1.2H195.443V18H191.555ZM207.59 18.288C206.262 18.288 205.03 18.072 203.894 17.64C202.774 17.208 201.798 16.6 200.965 15.816C200.15 15.032 199.51 14.112 199.046 13.056C198.598 12 198.374 10.848 198.374 9.6C198.374 8.352 198.598 7.2 199.046 6.144C199.51 5.088 200.158 4.168 200.99 3.384C201.822 2.6 202.798 1.992 203.918 1.56C205.038 1.128 206.254 0.912 207.566 0.912C208.894 0.912 210.109 1.128 211.214 1.56C212.334 1.992 213.302 2.6 214.118 3.384C214.95 4.168 215.598 5.088 216.062 6.144C216.526 7.184 216.758 8.336 216.758 9.6C216.758 10.848 216.526 12.008 216.062 13.08C215.598 14.136 214.95 15.056 214.118 15.84C213.302 16.608 212.334 17.208 211.214 17.64C210.109 18.072 208.901 18.288 207.59 18.288ZM207.566 14.976C208.318 14.976 209.006 14.848 209.63 14.592C210.27 14.336 210.83 13.968 211.31 13.488C211.79 13.008 212.158 12.44 212.414 11.784C212.686 11.128 212.822 10.4 212.822 9.6C212.822 8.8 212.686 8.072 212.414 7.416C212.158 6.76 211.79 6.192 211.31 5.712C210.846 5.232 210.294 4.864 209.654 4.608C209.014 4.352 208.318 4.224 207.566 4.224C206.814 4.224 206.118 4.352 205.478 4.608C204.854 4.864 204.302 5.232 203.822 5.712C203.342 6.192 202.966 6.76 202.694 7.416C202.438 8.072 202.31 8.8 202.31 9.6C202.31 10.384 202.438 11.112 202.694 11.784C202.966 12.44 203.334 13.008 203.798 13.488C204.278 13.968 204.838 14.336 205.478 14.592C206.118 14.848 206.814 14.976 207.566 14.976Z" fill="#F5F5F5"/>
</svg>
