<svg width="34" height="34" viewBox="0 0 34 34" fill="none" xmlns="http://www.w3.org/2000/svg">
<path d="M17 0.333374C7.79998 0.333374 0.333313 7.80004 0.333313 17C0.333313 26.2 7.79998 33.6667 17 33.6667C26.2 33.6667 33.6666 26.2 33.6666 17C33.6666 7.80004 26.2 0.333374 17 0.333374ZM24.7333 11.6667C24.4833 14.3 23.4 20.7 22.85 23.65C22.6166 24.9 22.15 25.3167 21.7166 25.3667C20.75 25.45 20.0166 24.7334 19.0833 24.1167C17.6166 23.15 16.7833 22.55 15.3666 21.6167C13.7166 20.5334 14.7833 19.9334 15.7333 18.9667C15.9833 18.7167 20.25 14.8334 20.3333 14.4834C20.3449 14.4304 20.3433 14.3753 20.3288 14.323C20.3143 14.2708 20.2872 14.2228 20.25 14.1834C20.15 14.1 20.0166 14.1334 19.9 14.15C19.75 14.1834 17.4166 15.7334 12.8666 18.8C12.2 19.25 11.6 19.4834 11.0666 19.4667C10.4666 19.45 9.33331 19.1334 8.48331 18.85C7.43331 18.5167 6.61665 18.3334 6.68331 17.75C6.71665 17.45 7.13331 17.15 7.91665 16.8334C12.7833 14.7167 16.0166 13.3167 17.6333 12.65C22.2666 10.7167 23.2166 10.3834 23.85 10.3834C23.9833 10.3834 24.3 10.4167 24.5 10.5834C24.6666 10.7167 24.7166 10.9 24.7333 11.0334C24.7166 11.1334 24.75 11.4334 24.7333 11.6667Z" fill="#5E6648"/>
</svg>
